# xmcd
#
# Track frame offsets: 
#        150
#        18402
#        37631
#        57799
#        81089
#        98569
#        120214
#        141929
#        161448
#        184190
#        203057
#        223063
#        243982
#        263881
#        282449
#        302407
#        325604
#
# Disc length: 4371 seconds
#
# Revision: 0
# Processed by: cddbd v1.5.2PL0 Copyright (c) Steve Scherf et al.
# Submitted via: ExactAudioCopy v0.99pb5
#
DISCID=d9111111
DTITLE=Various Artist - Singuri acasa vol.2
DYEAR=2006
DGENRE=Manele
TTITLE0=Nicolae Guta - Pe drumul vietii
TTITLE1=Florin Peste si Diana - Orice dimineata
TTITLE2=Florinel si Ioana - Doar pe mine tu ma vrei
TTITLE3=Costel Ciofu si Laura - Ochii mei plang diamante
TTITLE4=Copilul de Aur si Jean de la Craiova - Baieti de bani gata
TTITLE5=Vali Vijelie - Helo Gagica
TTITLE6=Florin Peste si Play Aj - Beau, beau, beau
TTITLE7=Adi de la Valcea - Asta seara
TTITLE8=Florin Peste si Diana - Langa mine tu cand vii
TTITLE9=Bonus 1
TTITLE10=Cristian Rizescu, Laura si Play Aj - Cand se lasa seara
TTITLE11=Bonus 2
TTITLE12=Bonus 3
TTITLE13=Bonus 4
TTITLE14=Bonus 5
TTITLE15=Bonus 6
TTITLE16=Publicitate
EXTD=
EXTT0=
EXTT1=
EXTT2=
EXTT3=
EXTT4=
EXTT5=
EXTT6=
EXTT7=
EXTT8=
EXTT9=
EXTT10=
EXTT11=
EXTT12=
EXTT13=
EXTT14=
EXTT15=
EXTT16=
PLAYORDER=
